<?xml version="1.0" standalone="no"?>
<!DOCTYPE svg PUBLIC "-//W3C//DTD SVG 20010904//EN"
 "http://www.w3.org/TR/2001/REC-SVG-20010904/DTD/svg10.dtd">
<svg version="1.0" xmlns="http://www.w3.org/2000/svg"
 width="1080.000000pt" height="1080.000000pt" viewBox="0 0 1080.000000 1080.000000"
 preserveAspectRatio="xMidYMid meet">
<metadata>
Created by potrace 1.11, written by Peter Selinger 2001-2013
</metadata>
<g transform="translate(0.000000,1080.000000) scale(0.100000,-0.100000)"
fill="#000000" stroke="none">
<path d="M5055 9869 c-88 -4 -191 -15 -230 -24 -38 -9 -106 -22 -150 -28 -44
-7 -86 -17 -93 -21 -7 -4 -27 -9 -45 -11 -58 -7 -147 -29 -147 -36 0 -14 -63
-39 -85 -33 -13 3 -39 -4 -68 -20 -25 -14 -70 -31 -99 -37 -29 -6 -78 -23
-108 -38 -101 -50 -255 -133 -270 -146 -8 -7 -52 -36 -98 -64 -45 -28 -90 -58
-100 -66 -54 -48 -91 -75 -99 -75 -15 0 -53 -45 -53 -62 0 -8 -21 -26 -46 -39
-26 -13 -50 -34 -55 -47 -5 -13 -17 -26 -27 -29 -10 -2 -26 -18 -36 -34 -10
-16 -29 -37 -42 -46 -14 -9 -35 -36 -46 -60 -11 -23 -24 -43 -28 -43 -30 0
-209 -217 -232 -282 -6 -16 -14 -28 -19 -28 -6 0 -17 -17 -26 -37 -8 -21 -24
-44 -34 -51 -10 -7 -19 -19 -19 -26 0 -7 -11 -30 -25 -50 -13 -20 -22 -36 -19
-36 3 0 -6 -15 -19 -32 -36 -48 -57 -93 -57 -123 0 -14 -3 -25 -8 -25 -6 0
-21 -27 -63 -112 -5 -10 -9 -27 -9 -38 0 -12 -4 -18 -10 -15 -12 7 -60 -93
-94 -195 -13 -41 -34 -93 -45 -115 -12 -21 -21 -50 -21 -63 0 -13 -13 -52 -29
-86 -36 -78 -48 -112 -56 -159 -3 -20 -17 -59 -30 -86 -14 -27 -25 -60 -25
-74 0 -14 -7 -38 -15 -53 -8 -16 -15 -45 -15 -64 -1 -19 -7 -53 -15 -75 -8
-22 -15 -50 -15 -62 0 -12 -7 -28 -15 -37 -8 -8 -15 -26 -15 -39 0 -14 -6 -52
-14 -84 -7 -32 -22 -96 -31 -143 -10 -47 -24 -105 -32 -130 -9 -25 -19 -91
-23 -147 -5 -64 -13 -112 -23 -126 -17 -27 -21 -46 -43 -207 -9 -63 -22 -127
-30 -142 -8 -15 -14 -41 -14 -57 0 -34 -18 -158 -30 -211 -22 -93 -71 -376
-89 -510 -7 -47 -16 -112 -21 -145 -5 -33 -12 -97 -16 -142 -3 -46 -10 -83
-14 -83 -9 0 -22 -48 -26 -95 -4 -44 -23 -168 -29 -184 -10 -26 -34 -156 -39
-206 -3 -27 -10 -68 -16 -90 -7 -22 -20 -76 -30 -120 -10 -44 -25 -109 -35
-145 -9 -36 -23 -93 -31 -126 -7 -34 -18 -74 -24 -89 -5 -14 -10 -36 -10 -48
0 -11 -9 -30 -20 -42 -12 -13 -25 -48 -32 -86 -6 -35 -19 -76 -29 -91 -11 -14
-19 -31 -19 -37 0 -5 -11 -31 -25 -57 -14 -26 -25 -55 -25 -66 0 -27 -28 -91
-45 -104 -8 -6 -19 -34 -25 -63 -11 -61 -35 -101 -61 -101 -10 0 -25 -12 -33
-27 -8 -16 -31 -45 -50 -66 -20 -21 -36 -42 -36 -47 0 -4 -16 -17 -35 -29 -19
-11 -35 -27 -35 -36 0 -8 -4 -15 -10 -15 -5 0 -10 -7 -10 -15 0 -8 -9 -15 -19
-15 -11 0 -21 -4 -23 -8 -1 -4 -28 -18 -58 -31 -76 -33 -140 -78 -140 -100 0
-10 -7 -24 -16 -32 -11 -9 -14 -22 -9 -48 8 -47 27 -101 36 -101 3 0 19 -19
35 -42 15 -24 47 -62 69 -84 23 -23 49 -54 59 -69 10 -14 32 -35 50 -46 18
-10 39 -31 47 -46 13 -27 115 -133 128 -133 3 0 13 -13 23 -29 9 -16 31 -37
50 -47 40 -20 68 -48 68 -68 0 -18 38 -46 62 -46 10 0 15 -5 12 -13 -6 -15 84
-81 109 -79 9 0 17 -3 17 -8 0 -9 30 -41 69 -72 12 -10 31 -18 42 -18 17 0 20
-5 16 -21 -4 -15 1 -23 21 -30 14 -5 36 -21 48 -34 13 -14 32 -25 44 -25 11 0
20 -5 20 -11 0 -16 25 -34 87 -64 28 -14 54 -32 57 -41 4 -11 14 -13 40 -8 39
7 71 -10 90 -47 6 -12 29 -28 51 -36 22 -7 45 -19 50 -27 6 -7 26 -17 45 -21
19 -4 47 -14 62 -21 15 -8 35 -15 45 -17 10 -2 37 -13 60 -25 23 -12 48 -22
55 -22 7 0 25 -7 41 -15 32 -16 126 -32 278 -45 59 -5 119 -14 133 -20 38 -14
116 -12 236 6 120 17 212 45 289 85 30 16 59 29 65 29 6 0 27 15 46 33 20 17
55 47 78 65 29 23 42 41 42 58 0 28 37 84 56 84 18 0 44 40 44 66 0 11 9 29
19 38 11 10 22 37 26 59 10 60 27 120 39 136 25 32 3 961 -25 1088 -5 22 -13
126 -19 230 -6 103 -15 212 -20 241 -5 29 -13 115 -16 190 -4 75 -14 173 -24
218 -9 44 -16 95 -14 113 2 18 -3 96 -12 174 -9 78 -18 165 -20 192 -9 115
-14 148 -23 159 -11 13 -16 80 -60 791 -15 243 -18 930 -4 990 7 28 17 100 23
160 15 158 24 204 49 255 14 30 21 60 20 91 -2 40 3 54 34 97 20 27 37 55 37
61 0 6 22 34 49 62 l49 51 88 -5 c49 -2 121 -13 159 -22 39 -10 88 -19 110
-20 22 -1 52 -7 66 -13 45 -18 215 -42 404 -58 44 -4 88 -11 99 -16 28 -15
647 -29 841 -19 94 5 231 16 305 25 74 9 180 21 235 27 55 6 138 20 185 31 47
11 110 22 140 25 30 2 64 8 75 13 80 32 259 41 300 14 14 -9 25 -21 25 -27 0
-6 17 -40 39 -76 21 -36 42 -77 46 -91 4 -14 13 -32 20 -40 16 -18 55 -174 55
-218 0 -16 6 -35 13 -41 10 -7 16 -50 21 -133 11 -194 21 -292 29 -306 13 -19
9 -572 -3 -587 -6 -7 -12 -59 -14 -116 -8 -194 -25 -434 -35 -484 -5 -27 -14
-151 -21 -275 -6 -124 -16 -248 -21 -276 -5 -28 -7 -58 -3 -67 3 -10 -1 -32
-9 -50 -8 -17 -18 -75 -22 -127 -3 -52 -13 -156 -21 -230 -8 -74 -21 -196 -29
-270 -8 -74 -19 -205 -25 -290 -7 -85 -16 -207 -22 -270 -5 -63 -12 -191 -14
-285 -3 -93 -9 -186 -15 -205 -6 -19 -13 -156 -16 -305 -5 -252 -4 -274 15
-330 11 -33 23 -77 27 -98 4 -20 11 -40 16 -43 5 -3 9 -23 9 -45 0 -26 7 -46
20 -59 11 -11 20 -27 20 -36 0 -21 39 -85 62 -102 10 -7 18 -19 18 -27 0 -8 6
-18 14 -22 7 -4 21 -23 30 -41 10 -19 32 -40 54 -50 20 -9 39 -20 40 -24 2 -5
10 -8 17 -8 7 0 15 -7 19 -15 8 -22 67 -55 99 -55 15 0 27 -5 27 -10 0 -18 41
-29 179 -50 165 -25 402 -27 507 -5 80 17 84 18 171 51 34 13 71 24 82 24 29
0 143 40 162 56 8 8 25 14 36 14 11 0 26 7 33 15 7 8 16 15 21 15 5 0 38 14
74 31 54 25 65 34 60 50 -5 15 -1 19 20 19 23 0 121 54 184 102 13 10 32 18
43 18 11 0 16 4 13 10 -3 5 0 7 7 5 8 -3 23 2 33 12 11 10 36 31 55 47 19 16
35 33 35 38 0 10 48 43 90 62 17 8 57 40 90 73 33 32 77 66 98 75 20 9 37 24
37 33 0 17 12 29 89 95 29 25 59 57 67 72 8 16 31 36 52 46 26 12 40 26 47 50
5 17 15 32 22 32 7 0 26 15 42 32 17 18 46 51 65 72 20 21 36 45 36 52 0 7 11
22 25 33 28 21 75 86 75 101 0 6 5 9 12 8 14 -3 29 66 22 102 -6 31 -58 90
-79 90 -8 0 -15 7 -15 16 0 9 -6 14 -13 11 -7 -3 -23 6 -36 19 -13 13 -29 24
-36 24 -7 0 -15 7 -19 15 -3 8 -14 15 -25 15 -10 0 -21 7 -25 15 -3 8 -14 15
-25 15 -12 0 -21 9 -25 25 -4 16 -16 27 -34 31 -38 9 -49 20 -56 57 -6 30 -37
77 -51 77 -14 0 -54 54 -61 83 -8 36 -70 163 -84 172 -5 3 -17 30 -26 60 -8
30 -20 57 -25 60 -5 4 -9 16 -9 29 0 12 -4 26 -9 32 -10 9 -27 68 -40 139 -7
38 -25 97 -42 140 -18 47 -28 95 -34 170 -4 44 -13 98 -20 120 -7 22 -16 83
-20 135 -7 111 -23 180 -42 187 -14 5 -18 50 -5 70 10 15 -20 303 -49 468 -6
33 -14 123 -19 200 -4 77 -13 183 -19 235 -5 52 -13 142 -16 200 -9 173 -25
362 -35 410 -5 25 -17 115 -25 200 -8 85 -19 178 -24 205 -5 28 -17 118 -27
200 -9 83 -22 155 -28 160 -6 6 -13 28 -14 50 -2 22 -10 83 -19 135 -8 52 -17
111 -20 130 -3 19 -9 40 -13 45 -7 9 -13 33 -24 90 -2 12 -7 48 -11 80 -4 35
-19 82 -36 114 -16 30 -29 66 -29 80 0 31 -16 95 -35 136 -7 17 -16 53 -20 80
-4 28 -15 64 -25 81 -9 17 -23 48 -30 70 -7 21 -28 70 -46 109 -19 38 -34 77
-34 86 0 26 -27 83 -48 102 -11 10 -22 31 -25 46 -3 16 -12 35 -19 43 -18 19
-48 77 -48 91 0 7 -17 30 -38 52 -21 22 -53 70 -71 107 -18 37 -39 69 -47 72
-8 3 -14 11 -14 18 0 7 -9 19 -20 26 -11 6 -31 30 -45 51 -13 22 -40 47 -60
57 -19 9 -35 23 -35 30 0 15 -107 124 -121 124 -5 0 -20 18 -34 40 -18 29 -35
42 -65 50 -25 7 -54 26 -80 54 -28 29 -53 46 -76 51 -19 3 -38 14 -41 23 -9
23 -21 30 -70 43 -24 6 -43 15 -43 20 0 5 -6 9 -14 9 -7 0 -19 6 -25 14 -7 8
-27 18 -44 22 -17 3 -41 12 -52 19 -11 7 -47 18 -80 25 -33 7 -73 23 -90 35
-16 12 -52 27 -80 33 -115 25 -173 35 -227 39 -32 3 -58 9 -58 14 0 5 -13 9
-28 9 -35 0 -199 121 -212 156 -5 13 -23 30 -41 39 -17 9 -62 39 -100 66 -38
27 -80 49 -92 49 -13 0 -32 9 -43 21 -20 22 -93 59 -117 59 -18 0 -77 29 -77
39 0 11 -63 31 -99 31 -17 0 -49 9 -71 20 -22 11 -49 20 -61 20 -11 0 -35 6
-52 14 -31 14 -51 18 -192 36 -82 11 -372 10 -600 -1z m3435 -2099 c0 -5 -4
-10 -10 -10 -5 0 -10 5 -10 10 0 6 5 10 10 10 6 0 10 -4 10 -10z m-7485 -5100
c-3 -5 -12 -10 -20 -10 -8 0 -17 5 -20 10 -4 6 5 10 20 10 15 0 24 -4 20 -10z"/>
<path d="M4264 6040 c-103 -21 -201 -97 -245 -188 -28 -57 -36 -163 -20 -238
15 -64 82 -161 135 -193 132 -82 279 -79 398 8 130 96 175 280 104 425 -66
134 -230 216 -372 186z"/>
<path d="M6365 6037 c-67 -23 -98 -43 -151 -99 -210 -221 -52 -578 256 -578
167 0 298 109 336 278 15 70 15 78 -1 140 -30 112 -98 195 -195 240 -65 31
-182 39 -245 19z"/>
<path d="M4905 4752 c-50 -32 -76 -68 -82 -110 -12 -91 32 -150 135 -179 123
-36 165 -44 298 -58 141 -15 265 -9 419 20 180 34 249 65 280 125 49 95 -24
220 -127 220 -18 0 -78 -11 -133 -25 -198 -49 -386 -50 -580 -4 -132 31 -174
33 -210 11z"/>
</g>
</svg>
